<mxfile host="app.diagrams.net" modified="2023-01-31T06:09:29.041Z" agent="5.0 (Windows NT 10.0; Win64; x64) AppleWebKit/537.36 (KHTML, like Gecko) Chrome/109.0.0.0 Safari/537.36 Edg/109.0.1518.70" etag="JDuertPKlZxKqziOi8T4" version="20.8.13" type="github">
  <diagram name="第 1 页" id="U26otjXuvCuf7kNrA2Rx">
    <mxGraphModel dx="600" dy="332" grid="1" gridSize="10" guides="1" tooltips="1" connect="1" arrows="1" fold="1" page="1" pageScale="1" pageWidth="827" pageHeight="1169" math="0" shadow="0">
      <root>
        <mxCell id="0" />
        <mxCell id="1" parent="0" />
        <mxCell id="wsKRZQxbZAGPCEgEDLbG-12" value="" style="edgeStyle=orthogonalEdgeStyle;rounded=0;orthogonalLoop=1;jettySize=auto;html=1;" edge="1" parent="1" source="wsKRZQxbZAGPCEgEDLbG-1" target="wsKRZQxbZAGPCEgEDLbG-3">
          <mxGeometry relative="1" as="geometry" />
        </mxCell>
        <mxCell id="wsKRZQxbZAGPCEgEDLbG-1" value="L6←创建一个1×40的数组,把数组前15个元素值设为1,中件10个元素值设为0,后15个元素值设为-1" style="rounded=0;whiteSpace=wrap;html=1;" vertex="1" parent="1">
          <mxGeometry x="230" y="20" width="140" height="75" as="geometry" />
        </mxCell>
        <mxCell id="wsKRZQxbZAGPCEgEDLbG-13" value="" style="edgeStyle=orthogonalEdgeStyle;rounded=0;orthogonalLoop=1;jettySize=auto;html=1;" edge="1" parent="1" source="wsKRZQxbZAGPCEgEDLbG-3" target="wsKRZQxbZAGPCEgEDLbG-4">
          <mxGeometry relative="1" as="geometry" />
        </mxCell>
        <mxCell id="wsKRZQxbZAGPCEgEDLbG-3" value="L7←L5数组卷积L6数组" style="rounded=0;whiteSpace=wrap;html=1;" vertex="1" parent="1">
          <mxGeometry x="235" y="120" width="130" height="30" as="geometry" />
        </mxCell>
        <mxCell id="wsKRZQxbZAGPCEgEDLbG-15" value="" style="edgeStyle=orthogonalEdgeStyle;rounded=0;orthogonalLoop=1;jettySize=auto;html=1;" edge="1" parent="1" source="wsKRZQxbZAGPCEgEDLbG-4" target="wsKRZQxbZAGPCEgEDLbG-14">
          <mxGeometry relative="1" as="geometry" />
        </mxCell>
        <mxCell id="wsKRZQxbZAGPCEgEDLbG-4" value="L8←L7数组中值小于c9或者值大于c10,数组值设为0" style="rounded=0;whiteSpace=wrap;html=1;" vertex="1" parent="1">
          <mxGeometry x="240" y="170" width="120" height="60" as="geometry" />
        </mxCell>
        <mxCell id="wsKRZQxbZAGPCEgEDLbG-8" value="" style="edgeStyle=orthogonalEdgeStyle;rounded=0;orthogonalLoop=1;jettySize=auto;html=1;" edge="1" parent="1" source="wsKRZQxbZAGPCEgEDLbG-5" target="wsKRZQxbZAGPCEgEDLbG-7">
          <mxGeometry relative="1" as="geometry" />
        </mxCell>
        <mxCell id="wsKRZQxbZAGPCEgEDLbG-5" value="开始步骤2" style="rounded=1;whiteSpace=wrap;html=1;fillColor=#FF9670;" vertex="1" parent="1">
          <mxGeometry x="75" y="20" width="70" height="30" as="geometry" />
        </mxCell>
        <mxCell id="wsKRZQxbZAGPCEgEDLbG-9" style="edgeStyle=orthogonalEdgeStyle;rounded=0;orthogonalLoop=1;jettySize=auto;html=1;exitX=1;exitY=0.5;exitDx=0;exitDy=0;entryX=-0.009;entryY=0.424;entryDx=0;entryDy=0;entryPerimeter=0;" edge="1" parent="1" source="wsKRZQxbZAGPCEgEDLbG-7" target="wsKRZQxbZAGPCEgEDLbG-1">
          <mxGeometry relative="1" as="geometry">
            <Array as="points">
              <mxPoint x="210" y="120" />
              <mxPoint x="210" y="52" />
            </Array>
          </mxGeometry>
        </mxCell>
        <mxCell id="wsKRZQxbZAGPCEgEDLbG-7" value="输入:&lt;br&gt;待处理图像:P&lt;br&gt;激光线轮廓:L5&lt;br&gt;侧板激光线斜率最小值:c9&lt;br style=&quot;border-color: var(--border-color);&quot;&gt;侧板激光线斜率最大值:c10&lt;br&gt;侧板激光线长度最小值:c11" style="shape=parallelogram;perimeter=parallelogramPerimeter;whiteSpace=wrap;html=1;fixedSize=1;" vertex="1" parent="1">
          <mxGeometry x="20" y="80" width="180" height="110" as="geometry" />
        </mxCell>
        <mxCell id="wsKRZQxbZAGPCEgEDLbG-14" value="L9←L8数组中只保留下连续大于等于c11个值都不为0的区间,其余都赋值为0" style="rounded=0;whiteSpace=wrap;html=1;" vertex="1" parent="1">
          <mxGeometry x="240" y="250" width="120" height="60" as="geometry" />
        </mxCell>
      </root>
    </mxGraphModel>
  </diagram>
</mxfile>
